<svg width="339" height="365" viewBox="0 0 339 365" fill="none" xmlns="http://www.w3.org/2000/svg">
<rect width="339" height="364.346" rx="3.47239" fill="white"/>
<circle cx="170" cy="182" r="124" fill="#D9D9D9"/>
<circle cx="170" cy="182" r="123.5" stroke="black" stroke-opacity="0.3"/>
<path d="M170 110C151.392 110 136.264 125.23 136.264 143.964C136.264 162.341 150.54 177.213 169.148 177.857C169.716 177.785 170.284 177.785 170.71 177.857H171.207C179.939 177.564 188.214 173.863 194.285 167.538C200.355 161.213 203.744 152.759 203.736 143.964C203.736 125.23 188.608 110 170 110ZM206.08 196.87C186.264 183.57 153.949 183.57 133.991 196.87C124.972 202.947 120 211.17 120 219.965C120 228.76 124.972 236.912 133.92 242.918C143.864 249.639 156.932 253 170 253C183.068 253 196.136 249.639 206.08 242.918C215.028 236.84 220 228.689 220 219.822C219.929 211.027 215.028 202.876 206.08 196.87Z" fill="white"/>
<path d="M203.236 143.964V143.965C203.244 152.631 199.905 160.961 193.924 167.192C187.945 173.421 179.796 177.066 171.199 177.357H170.75C170.281 177.284 169.697 177.287 169.126 177.356C150.806 176.702 136.764 162.058 136.764 143.964C136.764 125.503 151.671 110.5 170 110.5C188.329 110.5 203.236 125.503 203.236 143.964ZM134.2 242.504L134.199 242.503C125.352 236.565 120.5 228.554 120.5 219.965C120.5 211.377 125.352 203.295 134.27 197.285C144.15 190.701 157.116 187.395 170.089 187.395C183.062 187.395 195.992 190.702 205.801 197.285C214.645 203.221 219.43 211.231 219.5 219.824C219.5 228.483 214.648 236.494 205.8 242.504C195.956 249.158 182.99 252.5 170 252.5C157.01 252.5 144.044 249.158 134.2 242.504Z" stroke="black" stroke-opacity="0.3"/>
</svg>
