<svg width="61" height="61" viewBox="0 0 61 61" fill="none" xmlns="http://www.w3.org/2000/svg">
<circle cx="30.5" cy="30.5" r="30.5" fill="white"/>
<path d="M38.9383 22.6413C38.4335 22.1364 37.618 22.1364 37.1131 22.6413L30.7833 28.9582L24.4535 22.6283C23.9487 22.1235 23.1332 22.1235 22.6283 22.6283C22.1235 23.1332 22.1235 23.9487 22.6283 24.4535L28.9582 30.7833L22.6283 37.1131C22.1235 37.618 22.1235 38.4335 22.6283 38.9383C23.1332 39.4431 23.9487 39.4431 24.4535 38.9383L30.7833 32.6085L37.1131 38.9383C37.618 39.4431 38.4335 39.4431 38.9383 38.9383C39.4431 38.4335 39.4431 37.618 38.9383 37.1131L32.6085 30.7833L38.9383 24.4535C39.4302 23.9616 39.4302 23.1332 38.9383 22.6413Z" fill="black"/>
</svg>
